<svg xmlns="http://www.w3.org/2000/svg" viewBox="0 0 24 24" id="Content-Pen-4--Streamline-Ultimate.svg" height="24" width="24"><desc>Content Pen 4 Streamline Icon: https://streamlinehq.com</desc><g><path d="M23.44 0.57a1.5 1.5 0 0 0 -2.13 0L19.9 2a0.51 0.51 0 0 0 0 0.71l1.41 1.39a0.55 0.55 0 0 0 0.36 0.15 0.51 0.51 0 0 0 0.33 -0.15l1.42 -1.41a1.51 1.51 0 0 0 0.43 -1.06 1.49 1.49 0 0 0 -0.41 -1.06Z" fill="#000000" stroke-width="1"></path><path d="M3.64 17.54a0.5 0.5 0 0 0 -0.46 -0.14 0.49 0.49 0 0 0 -0.36 0.31l-1.51 3.92 -1 1a0.75 0.75 0 0 0 0 1.06 0.78 0.78 0 0 0 1.07 0l1 -1 3.92 -1.51a0.47 0.47 0 0 0 0.31 -0.36 0.5 0.5 0 0 0 -0.14 -0.46Z" fill="#000000" stroke-width="1"></path><path d="M19.19 3.39a1.51 1.51 0 0 0 -2.12 0l-0.71 -0.7a2 2 0 0 0 -2.82 0L9.29 6.93a1 1 0 0 0 0 1.41 1 1 0 0 0 1.42 0L15 4.1l0.71 0.71L4.34 16.12a0.51 0.51 0 0 0 0 0.71l2.83 2.83a0.52 0.52 0 0 0 0.36 0.14 0.5 0.5 0 0 0 0.35 -0.14L20.61 6.93a1.5 1.5 0 0 0 0 -2.12Z" fill="#000000" stroke-width="1"></path></g></svg>